<?xml version="1.0" standalone="no"?>
<!DOCTYPE svg PUBLIC "-//W3C//DTD SVG 20010904//EN"
 "http://www.w3.org/TR/2001/REC-SVG-20010904/DTD/svg10.dtd">
<svg version="1.0" xmlns="http://www.w3.org/2000/svg"
 width="1080.000000pt" height="1080.000000pt" viewBox="0 0 1080.000000 1080.000000"
 preserveAspectRatio="xMidYMid meet">

<g transform="translate(0.000000,1080.000000) scale(0.100000,-0.100000)"
fill="#000000" stroke="none">
<path d="M6950 9553 c-41 -2 -85 -5 -96 -8 -21 -5 -21 -5 -3 -42 17 -37 17
-55 2 -503 -14 -416 -17 -469 -34 -503 -11 -21 -19 -40 -19 -42 0 -3 54 -5
120 -5 l120 0 -20 39 c-19 37 -19 49 -10 243 5 111 10 213 10 226 0 21 4 22
75 22 61 0 77 -3 82 -16 3 -9 2 -114 -3 -233 -8 -178 -12 -220 -27 -241 -9
-13 -17 -28 -17 -32 0 -7 69 -16 171 -21 l66 -3 -18 41 c-16 37 -17 57 -7 277
13 266 11 275 -57 299 -43 16 -44 25 -6 32 16 3 41 16 55 29 26 23 26 27 35
198 4 96 5 185 0 196 -17 48 -43 54 -199 52 -80 -1 -179 -3 -220 -5z m245
-276 c0 -76 -3 -100 -15 -107 -8 -5 -45 -10 -82 -10 l-68 0 0 103 c0 57 3 107
7 111 4 4 41 5 83 4 l75 -3 0 -98z"/>
<path d="M7560 9510 l20 -40 -25 -472 c-14 -260 -28 -484 -31 -497 -3 -14 -14
-37 -24 -51 l-19 -27 122 -17 c67 -9 173 -28 236 -42 122 -27 154 -26 172 8
16 29 81 1022 69 1053 -21 56 -92 77 -375 110 -181 21 -169 23 -145 -25z m332
-199 c17 -16 17 -33 -3 -361 -22 -376 -23 -386 -41 -393 -14 -5 -133 15 -142
24 -5 5 32 734 39 755 5 16 126 -4 147 -25z"/>
<path d="M6405 9500 c-121 -16 -234 -31 -252 -35 l-33 -6 19 -37 c18 -36 19
-56 11 -493 -7 -387 -11 -461 -24 -487 -9 -17 -16 -34 -16 -38 0 -6 109 1 197
12 l41 6 -19 32 c-16 27 -19 49 -18 171 1 77 4 165 7 195 l7 55 79 54 79 54
-5 -241 c-5 -225 -6 -243 -27 -278 l-22 -37 92 6 c51 4 107 7 126 7 l35 0 -22
35 -21 35 13 473 c13 456 14 474 35 510 l22 37 -42 -1 c-23 0 -141 -14 -262
-29z m85 -237 l-1 -78 -84 -58 -85 -58 0 113 c0 62 4 119 8 125 4 7 39 17 77
22 39 4 73 9 78 10 4 0 7 -34 7 -76z"/>
<path d="M5858 9421 c-53 -9 -100 -19 -103 -23 -4 -3 1 -17 10 -31 13 -20 15
-48 13 -152 l-3 -127 -77 -55 -78 -54 0 172 c0 158 2 174 22 206 l21 35 -29
-5 c-16 -3 -63 -11 -104 -17 -41 -6 -85 -13 -97 -16 l-23 -4 20 -38 c19 -35
20 -56 20 -475 0 -425 -1 -439 -21 -479 l-21 -41 39 6 c21 3 73 9 116 13 43 4
80 11 83 15 3 5 -2 19 -10 31 -13 18 -16 56 -16 213 l0 190 74 53 c41 28 77
52 80 52 3 0 6 -102 6 -228 0 -208 -2 -230 -20 -265 l-20 -37 21 0 c27 0 213
22 217 25 2 2 -4 17 -12 34 -14 26 -16 90 -16 478 0 425 1 450 20 492 11 24
20 45 20 47 0 6 -28 3 -132 -15z"/>
<path d="M3370 9346 c0 -3 9 -22 19 -43 16 -33 22 -95 42 -436 21 -375 21
-400 6 -427 l-17 -28 32 -11 c37 -11 193 -51 202 -51 4 0 -2 17 -13 38 -14 27
-21 68 -25 152 -4 63 -9 138 -12 166 l-5 51 76 27 c43 15 80 24 83 21 4 -4 11
-97 16 -207 7 -174 7 -205 -7 -233 -16 -33 -16 -34 11 -39 57 -12 158 -26 185
-26 l29 0 -21 33 c-18 30 -22 68 -39 442 -19 399 -19 411 -1 447 l18 37 -57 6
c-194 21 -381 52 -496 81 -14 3 -26 4 -26 0z m348 -212 l32 -6 0 -68 0 -68
-75 -27 c-42 -16 -77 -26 -79 -24 -2 2 -6 51 -10 108 l-7 104 53 -7 c29 -4 68
-9 86 -12z"/>
<path d="M4965 9294 c-104 -12 -198 -23 -208 -23 -18 -1 -18 -3 2 -34 19 -31
21 -57 30 -462 10 -422 10 -430 -10 -468 l-20 -39 118 7 c65 4 120 9 122 11 2
2 -5 16 -15 31 -17 25 -19 52 -22 239 l-3 212 88 7 c155 13 196 22 221 50 21
25 22 33 22 231 0 200 -5 237 -34 256 -17 11 -82 7 -291 -18z m143 -166 c18
-18 16 -153 -2 -171 -15 -15 -133 -33 -144 -22 -3 3 -8 48 -10 100 l-4 94 33
4 c70 8 115 7 127 -5z"/>
<path d="M4080 9245 c0 -3 8 -18 17 -32 15 -23 20 -84 35 -442 16 -402 16
-417 -2 -452 l-18 -36 75 -7 c42 -3 163 -6 269 -6 l193 0 -6 93 c-3 50 -7 93
-8 94 -1 2 -19 -7 -41 -18 -35 -19 -51 -20 -158 -15 -65 3 -120 7 -122 8 -2 2
-9 171 -16 375 -10 318 -10 376 2 400 8 15 16 31 18 36 2 4 -51 7 -117 7 -67
0 -121 -2 -121 -5z"/>
<path d="M5925 7043 c-11 -2 -30 -6 -42 -9 -59 -12 -10 -19 117 -16 77 2 140
7 140 11 0 16 -159 26 -215 14z"/>
<path d="M6180 7010 c-30 -5 -152 -11 -270 -14 -118 -4 -242 -9 -275 -12 -33
-2 -166 -10 -295 -15 -129 -6 -273 -14 -320 -19 -47 -5 -116 -12 -155 -16 -42
-4 -63 -9 -52 -13 11 -4 53 -4 95 0 294 27 435 32 822 28 527 -5 689 -3 753
10 29 6 117 15 197 22 144 11 159 14 147 25 -9 10 -588 14 -647 4z"/>
<path d="M7710 6881 c-87 -5 -123 -10 -143 -24 -26 -17 -37 -47 -17 -47 6 0
10 4 10 9 0 5 17 17 38 27 33 16 77 18 407 22 204 2 507 -1 675 -6 258 -7 310
-12 339 -26 24 -13 32 -14 29 -4 -10 30 -83 39 -388 48 -326 10 -762 10 -950
1z"/>
<path d="M5005 6800 c-110 -4 -222 -8 -249 -9 -41 -1 -47 -3 -36 -16 10 -12 7
-15 -17 -21 -53 -11 -202 -63 -242 -83 -22 -12 -49 -21 -61 -21 -11 0 -20 -7
-20 -15 0 -8 -6 -15 -12 -16 -25 -1 107 -28 143 -28 19 -1 43 -7 53 -14 16
-11 17 -18 7 -53 -6 -21 -11 -64 -11 -94 -1 -51 -9 -117 -40 -320 -6 -41 -17
-117 -24 -167 -7 -51 -15 -95 -18 -98 -3 -3 -22 2 -44 12 -46 19 -159 22 -194
3 -14 -7 -32 -21 -41 -32 -17 -21 -14 -21 -299 -48 -58 -6 -150 -13 -205 -15
-152 -8 -240 -25 -271 -52 -54 -46 -78 -22 -68 69 l7 63 -24 -20 c-13 -11 -29
-24 -36 -30 -7 -5 -19 -16 -28 -23 -8 -7 -15 -28 -15 -47 0 -38 -1 -38 -109
-59 -70 -14 -71 -13 -71 8 0 22 11 74 24 114 4 12 3 22 -2 22 -12 0 -72 -94
-72 -114 0 -10 -9 -16 -22 -17 l-23 0 23 -10 c13 -5 22 -14 20 -21 -8 -22 -51
-26 -78 -7 -14 10 -40 21 -59 24 l-34 7 23 -32 c12 -17 28 -29 35 -27 17 7
105 -13 105 -23 0 -18 -68 -30 -169 -31 -58 0 -124 -4 -146 -8 -37 -7 -38 -9
-17 -18 19 -7 2 -12 -90 -26 -62 -9 -130 -17 -150 -17 -37 0 -107 -28 -108
-42 0 -8 90 -11 515 -13 285 -2 984 -20 1360 -35 406 -16 638 -13 752 10 54
11 109 23 123 27 28 9 132 72 196 120 24 18 61 41 83 53 22 11 75 52 118 91
43 39 92 78 109 86 17 8 39 28 48 44 9 15 50 56 91 90 41 33 77 69 80 79 3 10
34 43 68 75 34 31 65 60 69 63 254 260 476 474 535 515 84 59 133 103 133 119
0 20 -20 24 -36 8 -8 -8 -74 -6 -215 5 -232 18 -1039 27 -1364 15z m473 -219
c-64 -4 -120 -10 -124 -14 -11 -11 37 -24 111 -32 91 -9 146 -23 169 -43 23
-21 57 -87 49 -95 -3 -4 -53 -4 -112 -1 -119 6 -143 -1 -173 -51 -29 -51 -48
-167 -48 -301 l0 -124 -104 0 c-98 0 -106 -2 -123 -23 -10 -13 -28 -29 -40
-36 -19 -10 -24 -8 -33 10 -7 13 -18 19 -29 16 -16 -4 -17 0 -10 37 15 77 10
176 -12 239 -13 37 -19 71 -15 91 18 101 37 171 48 178 7 4 61 8 120 8 58 0
114 3 123 6 24 9 45 58 45 104 l0 40 138 -2 137 -1 -117 -6z m-758 -50 c0 -17
-4 -33 -10 -36 -6 -4 -10 8 -10 29 0 20 5 36 10 36 6 0 10 -13 10 -29z m1500
-31 c0 -5 -2 -10 -4 -10 -3 0 -8 5 -11 10 -3 6 -1 10 4 10 6 0 11 -4 11 -10z
m-351 -324 l23 -13 -27 -21 c-36 -28 -42 -28 -48 5 -8 45 7 54 52 29z"/>
<path d="M8760 6800 c-168 -3 -296 -7 -285 -8 11 -2 149 -3 307 -2 190 1 288
-2 293 -9 4 -8 -105 -11 -357 -9 -212 0 -342 4 -313 9 70 11 -430 1 -638 -12
-206 -13 -265 -33 -72 -24 72 4 186 10 254 16 154 11 363 11 286 -1 -27 -5
-108 -9 -180 -9 -138 -2 -457 -25 -473 -35 -6 -3 -17 5 -26 19 -26 40 -110 59
-220 50 -172 -13 -337 -54 -488 -124 -26 -11 -52 -21 -59 -21 -17 0 -75 -37
-143 -92 -32 -26 -79 -56 -103 -68 -23 -11 -43 -24 -43 -29 0 -4 -54 -54 -119
-110 -124 -106 -328 -312 -516 -522 -60 -67 -138 -153 -172 -190 -35 -38 -63
-72 -63 -76 0 -5 -34 -43 -75 -85 -70 -72 -75 -79 -75 -120 1 -34 6 -47 25
-61 24 -18 33 -16 401 58 206 42 382 74 390 71 8 -3 19 -17 24 -30 15 -41 40
-48 121 -34 68 11 76 15 118 60 54 57 83 67 301 98 80 11 177 30 215 41 111
33 127 37 188 44 31 4 57 10 57 15 0 4 28 6 63 3 92 -7 440 62 479 95 23 19
13 33 -20 30 -26 -3 -27 -1 -48 97 -12 55 -31 141 -43 190 -12 50 -28 124 -36
165 -15 71 -47 210 -61 256 -5 20 -2 21 43 22 47 1 52 -1 100 -51 28 -28 58
-66 68 -84 10 -17 28 -37 39 -43 12 -6 48 -45 81 -86 33 -41 67 -83 75 -93 8
-10 49 -60 90 -111 147 -183 168 -201 305 -269 135 -67 170 -67 1394 14 l233
15 35 -31 c41 -35 72 -49 113 -49 68 0 125 -21 169 -61 43 -40 44 -40 37 -12
-4 15 -20 41 -37 56 -23 22 -27 32 -20 46 7 12 6 24 -3 37 -7 10 -16 36 -19
57 -5 34 -4 37 17 37 27 0 51 24 41 40 -9 14 -62 13 -68 -2 -2 -7 -8 -10 -12
-6 -4 4 0 15 10 24 13 14 14 19 3 25 -9 6 -7 9 10 9 30 0 28 14 -5 29 -19 9
-29 9 -31 2 -2 -6 -10 -11 -18 -11 -10 0 -14 9 -12 27 3 26 1 27 -37 24 -83
-6 -146 -59 -160 -132 -12 -67 2 -64 -296 -67 -151 -2 -269 0 -266 5 3 5 20
10 38 11 32 3 69 30 69 52 0 6 14 16 31 22 22 8 29 16 27 32 -2 13 -11 21 -23
22 -11 0 -59 1 -107 2 -101 2 -113 11 -124 98 -4 27 -15 60 -26 73 -10 13 -18
36 -18 51 0 24 -37 146 -86 283 -22 64 -11 72 52 42 50 -24 53 -24 98 -9 35
12 73 15 148 12 88 -3 103 -6 118 -25 21 -27 33 -104 20 -138 -15 -40 -25
-245 -12 -245 6 0 15 19 19 43 9 43 25 53 32 20 2 -10 9 -27 17 -37 13 -19 14
-19 22 4 5 14 22 27 43 34 21 7 35 19 37 31 2 11 10 27 18 36 8 9 13 24 12 35
-2 10 2 21 7 22 6 2 22 -27 36 -65 14 -37 31 -78 38 -91 l12 -22 21 20 c12 11
25 20 29 20 4 0 9 9 12 21 3 11 14 23 25 26 51 13 60 166 18 310 -15 51 -26
102 -24 114 2 17 -5 25 -32 35 -19 7 -47 13 -61 13 -14 1 -33 7 -44 15 -17 12
-17 13 8 20 15 3 27 10 27 15 0 9 -174 31 -247 31 -39 0 -44 -2 -33 -15 11
-14 -21 -15 -296 -13 -200 2 -308 7 -307 13 2 6 90 12 225 15 253 6 225 16
-67 26 -150 4 -172 7 -190 24 -12 11 -23 19 -26 18 -2 -2 -141 -5 -309 -8z
m345 -75 c0 -6 -164 -12 -460 -16 -441 -7 -729 -18 -955 -39 -102 -10 -138 -4
-114 19 9 9 473 40 674 44 293 7 855 1 855 -8z m-2435 -316 c7 -17 23 -37 35
-45 33 -21 111 -28 190 -15 38 5 71 8 74 5 3 -3 -6 -26 -19 -52 -20 -36 -32
-48 -60 -55 -19 -5 -40 -13 -45 -17 -6 -5 -21 -2 -35 5 -53 30 -164 14 -199
-29 -7 -9 -17 -13 -21 -11 -11 7 -1 182 12 218 15 39 51 37 68 -4z m500 -25
c0 -20 -17 -25 -57 -18 l-37 7 34 29 c32 26 36 27 47 11 7 -9 13 -22 13 -29z
m1282 -109 c0 -5 -5 -11 -11 -13 -6 -2 -11 4 -11 13 0 9 5 15 11 13 6 -2 11
-8 11 -13z m-252 -24 c0 -11 -26 -22 -34 -14 -12 12 -5 23 14 23 11 0 20 -4
20 -9z m388 -74 c6 -17 13 -68 17 -113 5 -67 3 -83 -10 -94 -9 -8 -19 -9 -24
-4 -10 11 -23 238 -15 247 11 11 22 -2 32 -36z m-518 -7 c0 -5 -4 -10 -10 -10
-5 0 -10 5 -10 10 0 6 5 10 10 10 6 0 10 -4 10 -10z m911 -187 c7 -7 6 -13 -1
-18 -5 -3 -10 -17 -10 -31 0 -17 -5 -24 -20 -24 -22 0 -27 28 -11 58 6 9 13
35 18 57 l7 40 4 -35 c2 -19 8 -40 13 -47z m-1476 -156 c7 -104 7 -107 -16
-127 -14 -11 -39 -19 -59 -20 -20 0 -60 -6 -90 -14 -30 -7 -72 -16 -92 -19
-37 -6 -38 -5 -38 24 0 19 -5 29 -15 29 -23 0 -18 20 9 30 13 5 26 15 29 22 4
9 6 8 6 -4 1 -11 7 -15 21 -11 11 3 20 0 20 -6 0 -7 9 -9 26 -5 20 5 26 2 31
-15 6 -24 33 -29 33 -6 0 11 8 13 30 9 19 -4 30 -2 30 5 0 6 -4 11 -8 11 -4 0
-6 17 -4 38 6 59 9 64 32 52 19 -10 20 -8 21 92 1 99 1 102 14 62 7 -23 16
-89 20 -147z m-447 109 c35 -8 74 -23 86 -35 25 -23 62 -139 49 -151 -4 -4
-44 -13 -87 -19 -44 -6 -87 -18 -95 -25 -25 -21 -79 -35 -166 -41 -44 -3 -150
-12 -235 -19 -184 -15 -186 -15 -170 61 6 28 20 59 31 69 11 10 27 43 35 73
17 59 36 88 69 102 29 14 409 2 483 -15z m-597 -82 l-4 -59 -8 40 c-4 22 -8
56 -8 75 0 30 2 33 12 19 7 -10 10 -38 8 -75z m2309 57 c5 -11 10 -47 10 -81
0 -53 3 -62 22 -69 33 -12 -60 -23 -128 -15 -61 8 -68 17 -24 33 17 5 31 14
31 18 1 4 4 19 6 33 2 14 4 36 5 50 0 44 58 67 78 31z m94 -9 c3 -10 2 -30 -2
-46 -7 -27 -9 -28 -25 -12 -16 17 -23 66 -11 79 10 9 33 -3 38 -21z m310 -94
l7 -38 -63 2 -63 2 53 3 52 4 0 36 c0 44 5 41 14 -9z m-3104 -12 c0 -3 -4 -8
-10 -11 -5 -3 -10 -1 -10 4 0 6 5 11 10 11 6 0 10 -2 10 -4z m1730 -86 c0 -5
-4 -10 -9 -10 -6 0 -13 5 -16 10 -3 6 1 10 9 10 9 0 16 -4 16 -10z m-67 -17
c-7 -2 -19 -2 -25 0 -7 3 -2 5 12 5 14 0 19 -2 13 -5z m-85 -20 c-10 -2 -26
-2 -35 0 -10 3 -2 5 17 5 19 0 27 -2 18 -5z m-121 -19 c-3 -3 -12 -4 -19 -1
-8 3 -5 6 6 6 11 1 17 -2 13 -5z m-100 -20 c-3 -3 -12 -4 -19 -1 -8 3 -5 6 6
6 11 1 17 -2 13 -5z m-1570 -260 c-3 -3 -12 -4 -19 -1 -8 3 -5 6 6 6 11 1 17
-2 13 -5z m-74 -21 c-7 -2 -21 -2 -30 0 -10 3 -4 5 12 5 17 0 24 -2 18 -5z
m-220 -40 c-7 -2 -19 -2 -25 0 -7 3 -2 5 12 5 14 0 19 -2 13 -5z"/>
<path d="M7225 5710 c3 -5 8 -10 11 -10 2 0 4 5 4 10 0 6 -5 10 -11 10 -5 0
-7 -4 -4 -10z"/>
<path d="M3795 6678 c-55 -28 -116 -58 -135 -67 -19 -9 -57 -32 -83 -52 -27
-20 -70 -47 -95 -59 -70 -35 -202 -119 -246 -158 -21 -19 -59 -43 -85 -54 -25
-11 -59 -33 -76 -48 -35 -34 -118 -93 -160 -116 -37 -20 -128 -87 -175 -129
-19 -17 -64 -49 -100 -70 -36 -21 -77 -51 -92 -66 -15 -15 -49 -39 -75 -54
-44 -26 -215 -135 -238 -153 -43 -33 -75 -52 -98 -57 -15 -4 -64 -31 -110 -61
-45 -30 -86 -55 -91 -57 -57 -19 252 -48 338 -31 36 6 46 29 13 29 -35 0 -28
18 29 78 33 34 73 79 88 99 34 47 289 266 374 321 23 15 67 50 98 78 31 28 75
59 99 69 23 10 64 38 92 62 45 41 87 70 155 108 43 24 174 118 203 144 15 14
47 32 73 40 26 9 62 29 82 45 43 34 185 116 220 125 42 12 127 56 140 71 26
31 -45 13 -145 -37z"/>
<path d="M10090 6710 c0 -5 7 -10 15 -10 8 0 15 5 15 10 0 6 -7 10 -15 10 -8
0 -15 -4 -15 -10z"/>
<path d="M10392 5774 c1 -9 9 -19 16 -22 9 -3 13 2 10 14 -1 9 -9 19 -16 22
-9 3 -13 -2 -10 -14z"/>
<path d="M4835 5352 c-5 -4 -19 -18 -30 -32 -16 -21 -14 -20 13 4 29 27 37 36
30 36 -2 0 -7 -4 -13 -8z"/>
<path d="M8066 5317 c-15 -19 -26 -37 -26 -40 0 -16 40 -5 50 13 6 11 14 19
18 19 26 -4 30 3 12 21 -11 11 -22 20 -24 20 -3 0 -16 -15 -30 -33z"/>
<path d="M8190 5332 c6 -13 14 -21 18 -18 3 4 -2 14 -12 24 -18 16 -18 16 -6
-6z"/>
<path d="M7663 5281 c-15 -17 -35 -31 -44 -31 -16 0 -49 -30 -49 -45 0 -5 10
1 21 14 14 15 28 21 42 17 12 -3 29 2 39 11 14 13 21 14 30 5 15 -15 55 -16
63 -2 3 6 -3 10 -14 10 -11 0 -29 12 -40 26 l-21 26 -27 -31z"/>
<path d="M7750 5302 c0 -5 9 -17 20 -27 11 -10 17 -22 13 -28 -4 -6 0 -8 11
-4 10 4 32 7 49 8 l32 1 -33 8 c-18 4 -43 17 -56 29 -24 22 -36 27 -36 13z"/>
<path d="M8175 5291 c-40 -7 -40 -7 -10 -14 78 -17 150 -9 115 13 -16 11 -44
11 -105 1z"/>
<path d="M7995 5250 c-3 -5 -1 -10 4 -10 6 0 11 5 11 10 0 6 -2 10 -4 10 -3 0
-8 -4 -11 -10z"/>
<path d="M4693 5191 c-29 -33 -53 -63 -53 -67 0 -11 55 43 92 89 47 59 19 43
-39 -22z"/>
<path d="M8050 5240 c0 -5 5 -10 10 -10 6 0 10 5 10 10 0 6 -4 10 -10 10 -5 0
-10 -4 -10 -10z"/>
<path d="M8230 5218 c-40 -13 -79 -18 -142 -16 -48 1 -90 -1 -95 -6 -11 -11
26 -36 53 -36 12 0 29 -11 38 -25 19 -29 60 -33 94 -9 30 21 19 34 -23 27 -37
-6 -69 2 -61 15 3 5 28 6 56 2 28 -4 53 -3 55 1 3 4 20 10 39 13 37 7 65 32
50 45 -5 4 -34 -1 -64 -11z"/>
<path d="M7820 5169 c-19 -5 -60 -9 -90 -8 -139 2 -160 0 -154 -16 4 -8 18
-18 33 -20 14 -3 43 -15 64 -26 33 -18 42 -18 72 -8 19 7 35 19 35 26 0 7 11
13 25 13 33 0 75 20 75 37 0 15 -9 15 -60 2z m-95 -49 c-3 -5 -12 -10 -20 -10
-8 0 -17 5 -20 10 -4 6 5 10 20 10 15 0 24 -4 20 -10z"/>
<path d="M1280 5070 c0 -27 90 -142 118 -151 11 -4 12 -13 3 -46 -14 -52 -33
-68 -60 -54 -30 17 -41 13 -41 -13 0 -27 16 -44 22 -24 2 6 12 9 21 5 15 -6
16 -18 8 -91 -2 -15 -90 77 -102 106 -7 17 -16 25 -25 21 -28 -11 -13 -44 47
-101 l62 -59 -11 -79 c-14 -93 -14 -178 -2 -404 5 -91 13 -277 19 -415 5 -137
17 -339 26 -448 12 -143 14 -227 8 -302 l-8 -104 -85 40 c-46 22 -92 47 -101
55 -16 14 -18 14 -28 -5 -25 -45 -23 -46 154 -106 28 -10 66 -18 85 -20 19 -1
48 -8 64 -14 15 -6 76 -14 135 -17 l106 -6 50 -48 c28 -26 77 -69 110 -96 33
-26 52 -45 42 -41 -22 8 -43 -2 -122 -60 -144 -105 -162 -134 -150 -240 10
-96 76 -170 197 -222 130 -55 460 -121 700 -141 212 -17 939 -33 1183 -26 237
7 283 10 420 26 44 5 127 12 185 15 58 4 157 13 220 22 63 8 183 19 265 23
467 26 713 63 925 140 257 92 628 180 1015 241 172 26 589 101 635 113 94 24
199 45 360 71 85 15 184 33 220 40 70 15 371 68 510 90 47 7 137 22 200 34
152 27 462 68 575 76 50 3 122 13 160 21 39 9 88 20 110 24 22 5 59 13 81 18
68 15 169 71 221 123 26 27 54 49 62 49 8 0 11 6 7 16 -3 9 3 28 13 43 11 15
22 43 26 64 4 20 11 40 16 43 5 3 9 18 9 34 0 16 4 31 9 34 4 3 11 24 15 47 4
22 13 56 21 75 12 29 19 34 47 34 70 0 76 20 84 256 9 288 -19 516 -77 626
-24 45 -133 170 -163 186 -42 23 -198 22 -241 0 -50 -27 -211 -190 -224 -228
-7 -19 -21 -57 -32 -85 -38 -95 -77 -230 -97 -340 -36 -198 -42 -241 -43 -316
-1 -41 -4 -98 -7 -128 -7 -51 -9 -55 -43 -66 -20 -7 -81 -16 -135 -20 -99 -7
-355 -47 -664 -105 -171 -32 -324 -54 -445 -65 -38 -4 -198 -31 -355 -61 -157
-30 -310 -59 -340 -65 -30 -5 -75 -14 -100 -18 -56 -10 -289 -46 -390 -60 -41
-6 -113 -18 -160 -27 -47 -8 -101 -17 -120 -18 -19 -1 -42 -5 -50 -9 -26 -10
-94 -27 -97 -23 -2 2 -5 122 -7 267 -5 385 -31 529 -136 744 -61 125 -74 140
-203 237 -75 56 -104 63 -262 62 -121 0 -146 -3 -187 -21 -75 -35 -189 -114
-243 -169 -71 -73 -152 -187 -160 -226 -4 -18 -16 -51 -27 -73 -30 -62 -84
-221 -107 -315 -37 -154 -50 -258 -62 -496 -10 -187 -16 -240 -28 -255 -13
-15 -41 -20 -169 -29 -187 -12 -272 -13 -254 -1 28 17 -81 25 -403 26 -442 3
-545 10 -613 42 -29 14 -55 29 -57 34 -3 4 -19 14 -35 23 -24 11 -44 13 -93 6
-34 -5 -144 -10 -244 -12 -167 -3 -183 -5 -183 -21 0 -13 -6 -16 -22 -12 -13
2 -169 18 -348 35 -311 29 -491 50 -610 70 -30 5 -109 14 -175 20 -205 18
-247 26 -267 52 -26 34 -22 54 25 119 50 69 56 70 196 34 53 -13 130 -29 171
-35 41 -6 129 -24 195 -40 109 -26 145 -30 380 -38 143 -5 316 -6 385 -3 l125
6 18 38 c10 21 22 57 26 80 5 23 31 155 59 292 28 138 55 288 62 335 19 135
98 479 126 545 6 17 20 68 29 115 20 100 42 186 50 200 3 6 16 10 28 10 36 0
42 8 99 123 16 32 45 75 64 96 19 21 34 43 34 48 0 6 55 15 123 22 67 6 205
20 307 31 102 11 280 27 395 35 116 8 221 17 235 19 14 3 32 1 40 -4 16 -10
-3 -13 -175 -30 -66 -7 -124 -14 -129 -17 -4 -3 -38 -7 -75 -9 -36 -1 -129
-10 -206 -19 -77 -9 -165 -19 -196 -22 -53 -5 -58 -8 -78 -43 -11 -21 -33 -46
-48 -55 -33 -22 -72 -66 -73 -82 0 -9 17 -13 54 -13 30 0 58 -4 61 -10 3 -5
27 -10 53 -9 l47 1 -40 13 -40 13 42 1 c23 1 54 -4 69 -9 21 -8 29 -7 39 6 10
14 21 16 59 11 31 -5 46 -3 46 5 0 7 17 9 54 4 38 -4 56 -2 58 6 3 7 27 11 69
10 48 -1 59 1 44 9 -15 7 -7 8 30 4 48 -5 75 3 78 21 1 5 33 7 71 5 49 -2 67
0 62 8 -5 7 4 11 26 11 25 0 42 9 65 33 68 69 109 115 126 141 23 33 35 33 48
-1 10 -27 7 -32 -80 -114 -50 -48 -91 -91 -91 -96 0 -5 -15 -17 -32 -28 -36
-21 -357 -73 -623 -100 -240 -24 -316 -35 -380 -56 -83 -27 -104 -40 -136 -85
-53 -74 -138 -258 -164 -357 -14 -54 -37 -130 -52 -170 -14 -39 -34 -100 -45
-137 -10 -36 -28 -96 -39 -135 -12 -38 -27 -106 -34 -150 -7 -44 -26 -132 -43
-195 -73 -283 -88 -381 -47 -313 10 18 34 40 52 48 31 15 33 19 33 65 0 128
54 386 130 615 11 33 29 101 40 150 11 50 25 104 32 120 23 61 110 260 118
270 4 6 14 29 21 53 7 23 17 46 23 51 7 5 60 1 131 -11 133 -23 164 -21 470
28 83 13 202 30 265 39 103 14 166 27 310 66 25 7 70 26 100 42 30 16 88 47
129 68 40 20 85 48 100 62 35 32 109 81 146 95 25 10 39 31 78 115 62 134 70
164 55 201 -11 28 -12 28 -72 22 -34 -4 -128 -20 -211 -37 -211 -42 -367 -67
-455 -73 -41 -3 -111 -10 -155 -16 -44 -5 -183 -17 -310 -26 -126 -8 -268 -19
-315 -25 -342 -39 -1177 -55 -1285 -24 -35 11 -127 16 -315 20 -305 5 -619 27
-630 44 -3 7 -14 9 -23 5 -26 -9 -64 21 -103 82 -31 48 -64 71 -64 44z m215
-180 c3 -5 -3 -64 -14 -129 -16 -92 -21 -162 -21 -308 0 -180 20 -524 40 -703
10 -90 13 -197 5 -188 -8 8 -39 279 -66 586 -9 107 -14 132 -27 132 -17 0 -52
28 -52 42 0 15 26 8 48 -12 l22 -21 -3 188 c-1 146 2 212 16 293 10 58 20 111
22 118 5 14 21 16 30 2z m3098 -16 c10 -10 -35 -84 -50 -84 -18 0 -30 33 -15
38 7 2 12 12 12 22 0 16 10 23 41 29 3 0 9 -2 12 -5z m-2908 -61 c-3 -27 -14
-91 -23 -143 -19 -106 -19 -341 -2 -620 19 -285 22 -416 11 -398 -15 22 -38
308 -53 639 -12 279 -10 315 22 496 10 62 16 73 36 73 12 0 14 -9 9 -47z m500
27 c50 -5 96 -10 104 -10 23 0 6 -65 -28 -107 -16 -21 -37 -54 -45 -74 -8 -20
-29 -50 -45 -68 -17 -18 -31 -38 -31 -43 0 -19 26 -1 55 40 40 55 58 55 37 0
-19 -52 -35 -72 -86 -109 -44 -32 -56 -36 -56 -15 0 9 -7 12 -18 9 -29 -7 -55
60 -48 122 3 28 8 73 11 100 l5 50 -14 -45 c-7 -25 -16 -73 -19 -106 -6 -57
-4 -65 23 -105 16 -24 30 -50 30 -56 0 -7 10 -13 23 -13 21 -1 21 -1 3 -12
-21 -12 -42 8 -107 99 l-30 43 21 122 c11 68 25 140 31 160 9 37 10 37 52 33
23 -3 83 -9 132 -15z m-258 -32 c-3 -18 -16 -89 -28 -158 -20 -116 -21 -146
-16 -425 3 -165 11 -351 18 -412 10 -88 10 -116 1 -125 -9 -9 -12 -8 -13 7 -1
11 -2 34 -3 50 -12 179 -17 279 -21 380 -2 66 -7 185 -10 265 -9 180 14 417
42 437 27 21 36 15 30 -19z m500 17 l22 -15 -20 -35 c-12 -19 -25 -35 -30 -35
-5 0 -9 -7 -9 -15 0 -9 -6 -12 -15 -9 -10 4 -15 0 -15 -13 0 -10 -4 -23 -9
-28 -14 -15 -24 -75 -13 -75 19 0 -34 -84 -56 -90 -11 -3 -44 -26 -73 -52 -28
-27 -57 -48 -65 -48 -25 0 -15 14 26 38 43 24 93 99 128 193 11 30 31 79 45
109 14 30 27 63 31 73 7 21 25 22 53 2z m2026 1 c8 -19 -3 -57 -14 -50 -12 7
-12 64 0 64 5 0 11 -6 14 -14z m-301 -46 c-1 -18 -10 -42 -18 -54 -12 -14 -15
-16 -11 -4 4 10 1 20 -4 24 -7 4 -7 10 0 17 6 6 11 22 11 35 0 15 5 22 13 19
7 -2 11 -18 9 -37z m112 32 c2 -4 1 -14 -5 -22 -5 -8 -9 -11 -9 -6 0 5 -11 -1
-24 -13 l-23 -22 -6 28 c-3 15 -3 31 0 35 6 11 60 10 67 0z m116 -7 c0 -8 -6
-15 -14 -15 -17 0 -28 14 -19 24 12 12 33 6 33 -9z m-1814 -28 c-16 -48 -95
-195 -131 -247 -26 -37 -33 -59 -39 -120 -10 -106 -35 -429 -46 -598 -5 -78
-12 -147 -16 -153 -16 -26 -22 21 -14 111 4 52 4 102 0 110 -5 8 -4 23 2 33 5
10 11 71 14 135 2 64 11 173 19 242 8 69 14 157 15 196 0 38 4 74 9 80 5 5 30
50 55 99 55 107 65 121 97 134 43 17 48 14 35 -22z m364 27 c0 -3 -6 -18 -14
-32 -8 -15 -34 -65 -57 -112 -23 -47 -54 -101 -69 -120 -36 -46 -47 -95 -70
-313 -24 -217 -26 -230 -39 -327 -17 -125 -21 -161 -28 -263 -3 -54 -10 -100
-16 -104 -7 -4 -8 38 -2 133 5 76 10 164 11 194 1 30 4 62 7 70 6 16 25 180
25 220 0 14 7 56 16 95 9 38 18 115 20 171 2 96 4 104 47 190 77 155 112 201
157 203 6 1 12 -2 12 -5z m315 -16 c-4 -13 -15 -32 -25 -43 -9 -11 -34 -51
-55 -90 -21 -38 -49 -86 -62 -105 -13 -19 -23 -46 -23 -60 0 -26 -51 -235 -68
-280 -5 -14 -13 -50 -17 -80 -4 -30 -16 -95 -27 -145 -11 -49 -27 -130 -34
-180 -22 -137 -31 -176 -33 -143 -2 56 31 278 64 423 8 34 12 71 8 83 -3 12
-1 28 4 35 6 6 15 32 21 57 18 77 41 183 47 225 18 110 114 297 163 317 33 13
44 9 37 -14z m805 11 c0 -7 7 -17 16 -24 21 -15 10 -58 -14 -53 -13 2 -17 15
-18 46 0 23 3 42 8 42 4 0 8 -5 8 -11z m-1440 -33 c0 -3 -4 -8 -10 -11 -5 -3
-10 -1 -10 4 0 6 5 11 10 11 6 0 10 -2 10 -4z m1370 -16 c0 -5 -9 -10 -20 -10
-11 0 -20 5 -20 10 0 6 9 10 20 10 11 0 20 -4 20 -10z m-2576 -102 c5 -9 7
-20 3 -24 -8 -8 -47 24 -47 38 0 15 32 5 44 -14z m963 0 c-3 -8 -6 -5 -6 6 -1
11 2 17 5 13 3 -3 4 -12 1 -19z m-817 -28 c62 -31 49 -62 -15 -36 -24 10 -35
21 -35 35 0 26 1 26 50 1z m233 -45 c32 -5 38 -10 35 -28 -4 -25 -3 -25 -75 0
-36 12 -53 23 -53 35 0 14 5 15 28 8 15 -5 44 -11 65 -15z m1477 -3 c0 -8 -86
-32 -112 -32 -19 0 -1 24 23 31 35 10 89 10 89 1z m-240 -12 c0 -6 -10 -14
-22 -19 -32 -13 -178 -34 -185 -27 -4 3 2 15 12 25 17 19 27 21 163 29 17 1
32 -3 32 -8z m-320 -20 c-10 -19 -25 -23 -125 -35 -27 -3 -65 -9 -82 -12 -25
-4 -33 -2 -33 10 0 26 24 36 115 45 142 15 137 15 125 -8z m1550 -20 c0 -5 -4
-10 -10 -10 -5 0 -10 5 -10 10 0 6 5 10 10 10 6 0 10 -4 10 -10z m-70 -10 c0
-5 -7 -10 -16 -10 -8 0 -12 5 -9 10 3 6 10 10 16 10 5 0 9 -4 9 -10z m276 -9
c-3 -5 -18 -12 -33 -15 -74 -18 -126 -28 -213 -42 -52 -8 -104 -19 -115 -24
-29 -12 -111 -19 -126 -9 -14 8 20 20 56 18 11 0 40 5 65 11 25 7 59 14 75 16
17 2 66 10 110 19 67 14 140 27 178 34 5 0 6 -3 3 -8z m-406 -11 c0 -5 -7 -10
-16 -10 -8 0 -12 5 -9 10 3 6 10 10 16 10 5 0 9 -4 9 -10z m-70 -10 c0 -5 -7
-10 -16 -10 -8 0 -12 5 -9 10 3 6 10 10 16 10 5 0 9 -4 9 -10z m-60 -14 c0
-17 -22 -26 -66 -26 -45 0 -43 14 4 27 53 15 62 15 62 -1z m-330 -62 c0 -8 -4
-12 -10 -9 -5 3 -10 10 -10 16 0 5 5 9 10 9 6 0 10 -7 10 -16z m335 -4 c-3 -5
-25 -10 -48 -10 -31 0 -38 3 -27 10 20 13 83 13 75 0z m-2337 -153 c27 -21
-11 -26 -50 -6 -37 19 -45 29 -32 42 6 6 57 -16 82 -36z m196 -25 c39 -7 67
-34 53 -48 -8 -8 -56 6 -114 33 -36 16 -35 36 0 28 12 -3 40 -9 61 -13z m7870
-174 c6 -147 4 -168 -9 -168 -11 0 -15 11 -15 43 0 23 -7 67 -15 97 -8 30 -15
72 -15 92 0 20 -4 39 -9 43 -5 3 -35 -24 -65 -60 -62 -73 -69 -76 -29 -12 55
87 127 156 144 138 4 -3 9 -81 13 -173z m125 149 c26 -25 81 -101 81 -114 0
-4 -21 16 -46 45 -25 28 -49 52 -53 52 -13 0 -34 -178 -27 -235 5 -43 3 -55
-8 -55 -7 0 -17 10 -20 23 -10 33 -20 282 -12 302 8 22 51 13 85 -18z m-6619
14 c0 -8 -76 -31 -102 -31 -7 1 -3 9 11 20 23 20 91 28 91 11z m-225 -10 c3
-6 -2 -14 -12 -19 -26 -14 -172 -36 -181 -28 -13 14 31 36 72 37 23 1 55 5 71
9 43 11 43 11 50 1z m-762 -35 c116 1 145 -4 117 -21 -6 -3 -58 -14 -117 -24
l-108 -18 -46 24 c-26 12 -51 23 -57 23 -15 0 -35 28 -28 39 4 6 26 3 59 -7
39 -13 85 -17 180 -16z m462 15 c3 -6 -2 -14 -12 -19 -25 -14 -211 -37 -220
-28 -15 14 31 36 76 37 25 0 64 4 86 8 56 12 63 12 70 2z m-1205 -126 c8 -9 8
-15 2 -15 -18 0 -42 12 -42 21 0 14 26 10 40 -6z m134 -20 c35 -15 55 -39 43
-51 -9 -10 -87 36 -87 51 0 18 -1 18 44 0z m8345 -60 c14 -64 9 -77 -43 -100
-44 -19 -171 -140 -162 -154 16 -25 79 1 149 61 37 32 70 58 72 58 3 0 5 -29
5 -65 l0 -65 -60 0 c-44 0 -61 -4 -68 -16 -7 -12 -14 -14 -28 -6 -10 5 -38 13
-61 17 -24 4 -43 11 -43 16 0 5 18 25 40 45 21 19 42 45 46 57 3 12 19 36 34
52 15 17 42 58 60 93 18 34 36 62 40 62 4 0 12 -25 19 -55z m-8121 -1 c66 -19
81 -29 65 -45 -16 -16 -147 33 -152 56 -2 13 1 16 13 12 9 -4 42 -14 74 -23z
m7682 -25 c19 -35 83 -101 107 -110 27 -10 30 -37 7 -46 -19 -7 -164 61 -164
77 0 25 23 100 31 100 4 0 13 -9 19 -21z m-6380 1 c0 -14 -35 -30 -66 -30 -22
0 -24 2 -14 14 6 8 24 17 38 19 15 2 30 5 35 6 4 0 7 -3 7 -9z m-1061 -30 c52
-16 78 -19 152 -13 63 4 89 3 89 -5 0 -15 -26 -20 -125 -25 -108 -6 -208 23
-189 55 7 10 2 11 73 -12z m859 8 c-3 -8 -38 -17 -87 -24 -73 -9 -81 -9 -79 5
2 11 19 18 58 22 97 10 112 10 108 -3z m-291 -14 c5 -14 -86 -34 -153 -34 -39
0 -54 4 -54 14 0 9 26 16 93 23 103 11 109 11 114 -3z m-1152 -67 c11 -9 14
-16 8 -20 -6 -4 -22 2 -34 13 -18 14 -20 19 -8 20 8 0 23 -6 34 -13z m150 -41
c31 -13 48 -36 28 -36 -18 0 -93 34 -93 41 0 13 26 11 65 -5z m8052 -23 c-9
-9 -19 -14 -23 -11 -10 10 6 28 24 28 15 0 15 -1 -1 -17z m-3901 -8 c35 -15
85 -51 132 -97 42 -40 88 -131 101 -196 15 -76 11 -82 -66 -119 -30 -14 -70
-40 -88 -59 -40 -39 -51 -42 -58 -14 -4 14 6 32 30 58 60 64 145 191 139 208
-25 65 -139 184 -176 184 -15 0 -24 -29 -50 -154 -19 -91 -21 -116 -12 -150 9
-35 9 -43 -6 -54 -32 -24 -41 27 -42 226 l0 182 30 0 c17 0 47 -7 66 -15z
m-144 -187 c2 -106 0 -201 -5 -211 -17 -36 -32 -10 -38 64 -4 41 -12 87 -18
102 -6 16 -18 60 -27 98 -11 48 -20 69 -31 69 -27 0 -8 25 37 48 81 41 78 47
82 -170z m-3788 163 c47 -16 73 -41 44 -41 -25 0 -138 42 -138 51 0 14 39 10
94 -10z m7638 -1 c58 -34 119 -52 134 -39 17 14 17 11 3 -30 -12 -35 -16 -37
-39 -16 -14 12 -23 12 -75 0 -33 -8 -63 -14 -67 -15 -10 0 -11 104 -1 113 9 9
7 10 45 -13z m-7312 -49 c109 -7 106 -16 -7 -24 -43 -4 -67 -1 -80 9 -10 7
-28 14 -40 14 -13 0 -23 5 -23 11 0 7 8 9 23 4 12 -4 69 -10 127 -14z m3278
-43 c-25 -29 -55 -68 -67 -85 -31 -46 -47 -41 -20 6 27 49 101 131 118 131 7
0 -7 -24 -31 -52z m4222 31 c0 -18 -2 -19 -15 -9 -8 7 -15 16 -15 21 0 5 7 9
15 9 9 0 15 -9 15 -21z m-7165 1 c-28 -12 -95 -12 -95 0 0 6 25 10 58 9 41 0
51 -3 37 -9z m7225 -24 c0 -3 -4 -8 -10 -11 -5 -3 -10 -1 -10 4 0 6 5 11 10
11 6 0 10 -2 10 -4z m30 -65 c47 -15 55 -22 55 -43 1 -27 33 -74 86 -127 l31
-31 -22 -45 c-12 -25 -24 -45 -26 -45 -9 0 -39 72 -64 150 -22 71 -31 87 -58
103 -50 29 -58 16 -18 -32 28 -33 36 -52 36 -81 0 -21 15 -75 35 -121 19 -45
31 -87 27 -94 -4 -7 -26 -29 -49 -48 -68 -56 -132 -58 -192 -7 l-24 21 17 62
c10 34 27 87 38 117 11 30 23 77 27 104 5 39 8 46 17 35 22 -27 26 -60 11 -77
-26 -29 -47 -111 -50 -190 l-2 -77 50 3 c28 2 63 8 78 14 25 10 28 15 23 47
-3 20 -8 70 -11 113 -4 42 -13 85 -20 95 -8 10 -15 25 -15 34 0 8 -13 33 -30
55 -30 40 -40 84 -17 84 6 0 37 -9 67 -19z m-112 -18 c15 -34 15 -43 -1 -43
-8 0 -22 -29 -35 -72 -33 -118 -69 -213 -81 -213 -11 0 -51 71 -51 91 0 6 9
15 19 20 51 24 149 204 111 204 -8 0 -8 6 0 20 14 27 23 25 38 -7z m-7812
-124 c4 -8 9 -8 17 0 18 18 35 12 45 -16 9 -27 9 -28 16 -5 11 32 26 27 26 -9
0 -27 3 -30 27 -27 19 2 29 10 33 28 6 22 11 25 50 24 28 -1 47 -7 55 -17 15
-21 31 -22 43 -1 14 25 29 9 24 -26 -4 -30 -25 -40 -38 -19 -4 8 -9 8 -17 0
-15 -15 -37 -14 -37 3 0 15 -46 11 -56 -5 -9 -16 -113 -10 -139 7 -20 13 -28
14 -40 4 -19 -16 -33 -4 -17 12 24 24 14 38 -24 33 -40 -5 -58 1 -49 16 8 13
72 11 81 -2z m3569 -91 c42 -41 79 -68 92 -68 22 0 60 -57 47 -69 -4 -3 -9 0
-11 7 -4 9 -9 10 -18 2 -9 -8 -34 -2 -91 19 -98 37 -166 70 -162 79 2 4 14 36
28 71 21 56 25 62 34 45 6 -10 43 -49 81 -86z m4055 92 c0 -5 -5 -10 -11 -10
-5 0 -7 5 -4 10 3 6 8 10 11 10 2 0 4 -4 4 -10z m-7210 -59 c0 -23 -4 -26 -35
-27 -19 0 -35 2 -35 4 0 3 9 20 21 39 17 27 24 31 35 22 8 -6 14 -23 14 -38z
m97 31 c6 -4 10 -19 10 -33 -2 -24 -6 -26 -44 -25 -39 1 -43 3 -43 27 0 14 3
29 7 32 9 9 55 9 70 -1z m84 -11 c20 -16 22 -23 13 -38 -17 -27 -58 -24 -62 5
-4 28 4 52 17 52 5 0 19 -9 32 -19z m7026 -23 c-3 -8 -6 -5 -6 6 -1 11 2 17 5
13 3 -3 4 -12 1 -19z m-3412 -79 c12 -19 6 -273 -8 -329 -11 -43 -16 -51 -22
-36 -5 10 -3 32 3 50 6 17 12 63 14 101 3 61 1 70 -14 69 -10 0 -43 -1 -74 -2
-48 -2 -60 -6 -82 -30 l-26 -29 -68 18 c-37 10 -77 23 -88 29 -21 11 -21 12
-3 32 15 16 19 17 21 5 2 -10 21 -17 61 -22 l58 -7 92 63 c51 35 97 71 102 81
11 20 25 23 34 7z m-283 -79 c-42 -39 -64 -39 -27 0 16 17 36 30 44 30 11 0 5
-10 -17 -30z m-142 -11 c0 -20 -15 -26 -25 -9 -9 15 3 43 15 35 5 -3 10 -15
10 -26z m-219 -65 c94 -36 97 -37 103 -72 7 -47 2 -50 -34 -24 -16 12 -39 22
-50 22 -32 0 -164 -31 -174 -41 -6 -5 -13 -9 -16 -9 -6 0 -1 137 6 159 6 18
45 10 165 -35z m148 -1 c8 -15 13 -16 30 -6 24 15 66 1 76 -25 7 -18 -3 -31
-13 -16 -8 11 -62 11 -80 0 -6 -3 -13 -2 -17 4 -4 6 -10 8 -15 5 -13 -8 -22
13 -15 35 8 25 21 26 34 3z m151 -73 c0 -5 -7 -10 -16 -10 -8 0 -12 5 -9 10 3
6 10 10 16 10 5 0 9 -4 9 -10z m-130 -80 c0 -13 7 -20 19 -20 26 0 37 -18 17
-26 -21 -8 -20 -22 4 -72 24 -50 25 -65 4 -83 -29 -24 -46 -71 -70 -197 -16
-85 -21 -129 -14 -136 18 -18 112 -11 178 14 69 25 70 27 52 121 -6 30 -15 85
-20 122 -5 45 -15 76 -28 90 -11 12 -28 51 -37 87 -10 36 -22 69 -26 75 -11
11 -12 45 -1 45 21 -1 161 -28 170 -34 5 -3 10 -22 10 -41 0 -42 21 -78 60
-102 15 -9 39 -28 54 -41 14 -13 31 -21 37 -18 21 13 11 -29 -20 -82 -16 -29
-36 -52 -42 -49 -20 6 -55 79 -80 164 -29 102 -48 130 -100 154 -72 32 -83 22
-47 -41 34 -61 142 -284 156 -324 21 -57 0 -85 -101 -135 -108 -55 -173 -57
-253 -9 -35 22 -51 38 -48 48 14 45 88 216 116 268 l32 60 -15 59 c-15 62 -28
71 -38 26 -3 -15 -15 -46 -26 -68 -11 -22 -24 -51 -28 -65 -4 -14 -27 -66 -51
-116 -24 -51 -44 -99 -44 -108 0 -24 -25 -19 -37 7 -87 181 -124 301 -122 391
1 47 2 45 13 -29 12 -78 22 -116 55 -204 20 -55 32 -59 53 -23 10 16 47 59 83
96 48 51 65 75 65 96 0 38 38 120 55 120 8 0 15 -9 15 -20z"/>
<path d="M2130 4710 c-24 -15 -7 -18 20 -3 14 7 18 13 10 13 -8 0 -22 -4 -30
-10z"/>
<path d="M2094 4655 c-3 -8 -4 -20 -2 -27 3 -7 7 -1 10 15 6 29 1 36 -8 12z"/>
<path d="M2375 3390 c3 -5 8 -10 11 -10 2 0 4 5 4 10 0 6 -5 10 -11 10 -5 0
-7 -4 -4 -10z"/>
<path d="M9805 5070 c6 -10 143 -6 153 5 3 3 -32 5 -77 5 -52 0 -80 -4 -76
-10z"/>
<path d="M1530 5057 c0 -10 6 -14 14 -11 8 3 117 0 242 -6 126 -6 292 -13 369
-15 178 -6 887 -13 860 -9 -11 2 -137 10 -280 19 -143 8 -280 18 -305 20 -25
3 -237 8 -472 11 -391 7 -428 6 -428 -9z"/>
<path d="M4476 5025 c-11 -8 -17 -17 -14 -20 2 -3 13 4 23 15 21 23 18 25 -9
5z"/>
<path d="M1237 4965 c-19 -63 -22 -95 -7 -95 6 0 10 7 10 15 0 8 4 23 9 33 15
31 28 77 23 90 -8 24 -18 11 -35 -43z"/>
<path d="M1270 4896 c0 -18 27 -39 40 -31 7 4 7 12 0 26 -12 22 -40 26 -40 5z"/>
<path d="M6351 4744 c0 -11 3 -14 6 -6 3 7 2 16 -1 19 -3 4 -6 -2 -5 -13z"/>
<path d="M1209 4631 c12 -16 21 -34 21 -40 0 -6 5 -11 10 -11 21 0 10 48 -15
64 -35 23 -39 20 -16 -13z"/>
<path d="M3660 4610 c0 -5 15 -10 33 -10 24 0 28 3 17 10 -20 13 -50 13 -50 0z"/>
<path d="M3568 4593 c6 -2 18 -2 25 0 6 3 1 5 -13 5 -14 0 -19 -2 -12 -5z"/>
<path d="M1212 4530 c-9 -15 -10 -26 -2 -40 11 -21 30 -27 30 -11 0 5 2 15 5
23 3 7 0 21 -7 31 -12 16 -14 16 -26 -3z"/>
<path d="M1285 4203 c4 -148 22 -349 31 -340 6 6 -16 388 -26 447 -7 40 -8 12
-5 -107z"/>
<path d="M4384 3845 c-4 -8 -4 -22 0 -30 3 -8 -10 -33 -29 -57 -57 -71 -95
-131 -95 -152 0 -10 -10 -33 -23 -50 -13 -17 -41 -62 -62 -101 -20 -38 -42
-77 -49 -85 -23 -31 -36 -61 -31 -70 3 -6 -3 -31 -14 -56 -26 -59 -27 -77 -2
-69 14 4 21 -2 30 -23 13 -31 111 -99 238 -164 109 -55 150 -98 109 -114 -14
-5 -121 56 -185 106 -20 15 -51 32 -69 38 -45 15 -102 62 -137 111 -31 45 -45
52 -45 20 0 -30 93 -124 137 -137 21 -7 61 -30 88 -51 61 -49 160 -107 197
-116 20 -5 28 -2 35 12 13 26 8 207 -11 380 -8 81 -20 220 -26 308 -17 260
-35 355 -56 300z m-114 -619 c0 -8 6 -14 13 -13 51 2 53 -4 32 -57 -7 -16 -4
-18 26 -11 33 7 33 6 12 -9 -43 -32 -131 13 -105 54 8 14 8 20 0 22 -6 2 -8
10 -4 16 10 16 26 15 26 -2z"/>
<path d="M1016 3660 c2 -58 6 -181 9 -275 3 -93 8 -170 11 -170 3 0 19 34 35
75 17 41 35 80 41 88 8 9 8 19 0 35 -6 12 -13 41 -16 65 -4 23 -20 76 -36 117
-17 42 -30 88 -31 103 0 15 -4 36 -9 47 -5 12 -7 -23 -4 -85z"/>
<path d="M1310 3120 l-45 -40 48 26 c26 14 47 32 47 40 0 18 2 19 -50 -26z"/>
<path d="M3090 2971 c0 -11 110 -111 122 -111 14 0 9 5 -57 64 -36 31 -65 53
-65 47z"/>
<path d="M2958 2909 c-21 -12 -43 -49 -29 -49 5 0 19 14 31 30 23 33 23 34 -2
19z"/>
<path d="M3270 2826 c0 -3 9 -10 20 -16 11 -6 20 -8 20 -6 0 3 -9 10 -20 16
-11 6 -20 8 -20 6z"/>
</g>
</svg>
