<?xml version="1.0" standalone="no"?>
<!DOCTYPE svg PUBLIC "-//W3C//DTD SVG 20010904//EN"
 "http://www.w3.org/TR/2001/REC-SVG-20010904/DTD/svg10.dtd">
<svg version="1.0" xmlns="http://www.w3.org/2000/svg"
 width="520.000000pt" height="292.000000pt" viewBox="0 0 520.000000 292.000000"
 preserveAspectRatio="xMidYMid meet">

<g transform="translate(0.000000,292.000000) scale(0.100000,-0.100000)"
fill="#000000" stroke="none">
<path d="M3746 2870 c-32 -10 -63 -23 -69 -29 -7 -7 -73 -11 -176 -11 -92 0
-266 -5 -389 -10 -231 -10 -743 -48 -751 -56 -2 -2 5 -4 17 -4 47 0 27 -20
-51 -51 -45 -19 -85 -33 -89 -31 -5 1 -8 -3 -8 -8 0 -6 -7 -10 -15 -10 -8 0
-45 -14 -82 -31 -77 -36 -222 -99 -226 -98 -1 0 -33 -13 -70 -30 -38 -17 -78
-31 -89 -31 -10 0 -16 -4 -13 -10 3 -5 -3 -10 -14 -10 -11 0 -26 -7 -34 -15
-8 -8 -34 -20 -57 -27 -23 -7 -46 -21 -51 -30 -5 -10 -15 -18 -22 -18 -7 0 -6
4 3 10 13 8 13 10 -2 10 -9 0 -18 -4 -20 -9 -1 -5 -10 -11 -18 -13 -8 -2 -17
-5 -20 -8 -18 -18 -70 -49 -70 -42 0 13 243 192 335 245 44 26 138 77 208 113
70 37 126 68 125 70 -20 19 -343 -128 -562 -257 -183 -108 -465 -289 -503
-322 -20 -17 -33 -38 -33 -52 l0 -24 183 5 c100 3 301 9 447 14 146 6 504 14
795 20 292 6 557 15 590 20 33 6 113 32 179 57 167 67 178 78 328 351 121 222
158 268 253 316 59 30 51 32 -29 6z m-1370 -233 c2 -7 -20 -64 -49 -127 -30
-63 -66 -147 -82 -187 -15 -40 -33 -74 -40 -77 -7 -2 -37 1 -66 8 -45 10 -53
15 -51 31 2 11 6 34 8 50 3 17 -1 38 -8 48 -14 19 -146 77 -176 77 -9 0 -23 4
-31 9 -29 18 238 133 384 166 79 17 105 18 111 2z m530 -82 c10 -25 -11 -91
-27 -86 -8 2 -46 6 -85 9 -71 4 -72 4 -112 -32 -47 -43 -66 -103 -60 -193 l3
-57 -40 -8 c-71 -12 -115 -9 -122 8 -11 29 84 315 120 362 7 9 52 12 164 12
127 0 155 -3 159 -15z"/>
<path d="M3978 2833 c23 -2 61 -2 85 0 23 2 4 4 -43 4 -47 0 -66 -2 -42 -4z"/>
<path d="M3850 2807 c-47 -23 -170 -137 -170 -156 0 -7 15 5 33 26 69 80 126
122 197 144 20 6 21 7 5 8 -11 0 -40 -9 -65 -22z"/>
<path d="M4168 2813 c7 -3 16 -2 19 1 4 3 -2 6 -13 5 -11 0 -14 -3 -6 -6z"/>
<path d="M3950 2788 c-133 -25 -223 -122 -399 -429 -75 -131 -92 -182 -69
-211 13 -17 200 -91 312 -123 42 -12 54 -20 47 -29 -14 -16 5 -88 30 -115 23
-24 37 -26 74 -9 19 8 25 19 25 42 0 17 5 47 10 67 l10 36 108 6 c125 6 156
16 176 55 11 22 25 31 53 37 68 12 388 97 396 105 5 4 2 21 -6 37 -15 28 -10
55 9 54 34 -1 -62 166 -158 275 -45 51 -162 119 -281 164 -119 45 -235 58
-337 38z m674 -544 c4 -9 4 -19 2 -22 -3 -2 -45 -13 -93 -23 -48 -10 -98 -21
-110 -24 -19 -4 -23 -1 -23 19 0 22 6 24 76 35 42 6 80 9 85 5 5 -3 9 -1 9 5
0 8 14 15 41 20 4 0 10 -6 13 -15z m-772 -169 c3 -14 1 -25 -3 -25 -5 0 -9 11
-9 25 0 14 2 25 4 25 2 0 6 -11 8 -25z"/>
<path d="M4874 2162 c13 -39 22 -73 19 -75 -7 -8 16 -47 48 -85 l29 -33 0 80
c0 78 0 79 -36 110 -19 17 -40 28 -46 25 -6 -4 -8 -3 -5 3 4 6 -2 18 -13 28
-19 17 -18 13 4 -53z m58 -15 c12 -4 15 -12 11 -23 -6 -15 -8 -15 -25 6 -10
12 -18 27 -18 34 0 8 3 8 8 0 4 -6 15 -13 24 -17z"/>
<path d="M3294 2152 c-2 -91 -14 -109 -96 -146 -134 -60 -127 -56 -93 -50 17
4 59 21 95 38 84 40 110 77 110 157 0 76 -15 77 -16 1z"/>
<path d="M3020 1934 l-25 -15 25 7 c14 3 32 10 40 15 13 7 13 8 0 8 -8 0 -26
-6 -40 -15z"/>
<path d="M2945 1905 c-25 -12 -26 -14 -5 -9 28 7 60 23 45 23 -5 0 -23 -6 -40
-14z"/>
<path d="M2838 1859 c-21 -11 -38 -22 -38 -24 0 -5 79 32 89 41 12 11 -18 1
-51 -17z"/>
<path d="M4300 1850 c0 -5 4 -10 9 -10 6 0 13 5 16 10 3 6 -1 10 -9 10 -9 0
-16 -4 -16 -10z"/>
<path d="M4335 1840 c-3 -5 1 -10 9 -10 8 0 18 5 21 10 3 6 -1 10 -9 10 -8 0
-18 -4 -21 -10z"/>
<path d="M2759 1813 c-13 -17 -13 -17 6 -3 11 8 22 16 24 17 2 2 0 3 -6 3 -6
0 -17 -8 -24 -17z"/>
<path d="M3110 1819 c-19 -5 -82 -16 -140 -24 -58 -8 -139 -23 -180 -32 -49
-10 -75 -12 -78 -5 -2 6 -12 5 -30 -3 -15 -8 -160 -32 -322 -55 -162 -22 -323
-45 -358 -51 -163 -26 -910 -38 -1147 -19 -128 11 -272 50 -352 96 l-41 24
-46 -69 c-34 -53 -44 -76 -40 -97 5 -35 71 -97 96 -91 15 4 14 1 -4 -24 -12
-16 -24 -29 -27 -29 -10 1 -66 55 -84 80 -12 18 -17 20 -17 8 0 -19 64 -77
164 -146 59 -41 82 -64 101 -102 14 -28 35 -56 48 -65 25 -16 246 -28 732 -40
310 -8 350 -3 500 69 130 63 160 73 370 124 166 40 195 47 485 108 184 38 327
81 384 115 21 12 42 38 55 65 27 56 46 137 38 158 -7 18 -49 20 -107 5z m75
-72 c-22 -74 -54 -123 -94 -145 -52 -29 -174 -65 -341 -102 -80 -17 -194 -42
-255 -56 -66 -14 -111 -20 -113 -14 -2 6 -10 10 -18 10 -9 0 -12 -4 -9 -10 3
-5 0 -7 -8 -5 -7 3 -84 -12 -170 -34 -121 -31 -183 -53 -270 -97 -61 -31 -119
-62 -127 -69 -33 -29 -106 -34 -425 -30 -370 6 -639 19 -676 33 -16 6 -38 32
-57 65 -22 39 -49 68 -92 98 -56 39 -69 58 -44 66 6 2 35 -14 65 -34 42 -30
61 -52 87 -103 23 -47 41 -69 62 -78 43 -18 355 -32 705 -32 342 0 306 -7 504
105 75 42 126 62 231 90 74 20 150 37 167 38 18 1 33 5 33 8 0 4 14 9 30 13
29 5 30 7 24 45 -5 33 -3 41 15 50 11 7 21 16 21 22 0 6 -5 7 -11 3 -7 -4 -7
2 1 17 26 50 60 75 60 45 0 -14 31 -15 83 -1 25 7 26 8 10 20 -24 18 -18 21
44 28 53 6 86 -9 44 -20 -12 -3 -21 -13 -21 -24 0 -18 13 -19 61 -4 20 7 27
35 8 35 -8 0 -8 5 1 15 19 23 27 18 23 -17 -3 -27 -1 -29 6 -13 8 16 10 17 10
3 1 -9 6 -20 12 -24 8 -4 9 0 4 15 -6 20 2 26 28 22 5 -1 5 3 2 9 -4 6 -13 9
-21 6 -7 -3 -16 -1 -19 4 -8 13 40 24 109 25 44 0 60 -4 63 -15 4 -13 3 -13
-6 0 -15 21 -14 -5 1 -29 9 -15 8 -22 -6 -36 -18 -18 -15 -32 3 -20 16 9 43
65 33 65 -5 0 -7 11 -4 25 2 14 9 25 14 25 5 0 6 -6 2 -12 -6 -10 -4 -10 7 0
36 34 -55 33 -225 -3 -11 -2 -15 0 -10 5 12 12 130 37 237 50 45 6 98 13 117
15 27 4 30 3 15 -4 -19 -9 -18 -10 5 -10 14 0 36 5 50 13 36 19 41 7 25 -47z
m-465 -23 c0 -2 -9 -4 -21 -4 -11 0 -18 4 -14 10 5 8 35 3 35 -6z m-73 -10
c-3 -3 -12 -4 -19 -1 -8 3 -5 6 6 6 11 1 17 -2 13 -5z m-2144 -29 c-3 -8 -1
-15 5 -15 6 0 12 5 14 12 3 9 24 6 78 -10 40 -12 75 -23 76 -25 2 -1 0 -28 -3
-60 -4 -40 -10 -57 -20 -57 -8 0 -12 3 -9 8 2 4 -15 15 -39 25 -46 19 -49 29
-23 69 17 26 15 38 -7 38 -7 0 -15 -18 -18 -41 -7 -50 -15 -59 -31 -36 -16 21
-26 22 -26 1 0 -8 3 -13 8 -11 4 3 15 -6 25 -19 12 -16 14 -24 6 -24 -7 0 -9
-3 -6 -7 4 -3 2 -12 -4 -19 -9 -11 -16 -7 -35 15 -13 16 -24 34 -24 40 0 6 -5
10 -11 9 -28 -7 -20 65 12 105 21 28 43 28 32 2z m1871 -60 c-38 -36 -73 -65
-78 -65 -5 0 -17 7 -26 15 -16 14 -18 14 -23 0 -4 -10 0 -15 11 -16 20 -2 -34
-16 -63 -17 -14 -1 -11 3 10 12 l30 12 -24 7 c-14 3 -29 3 -35 -1 -6 -3 -17
-8 -23 -9 -7 -2 -21 -5 -30 -7 -10 -3 -27 -5 -38 -6 -14 -2 -11 -4 10 -9 30
-7 30 -7 -12 -15 -47 -9 -83 -1 -83 18 0 12 78 86 91 86 15 0 17 -30 3 -44
-19 -20 -2 -29 31 -16 15 6 31 8 36 5 5 -4 6 1 3 9 -5 12 -10 13 -24 3 -24
-14 -35 -4 -21 21 7 13 7 22 -1 30 -9 9 -8 12 4 12 9 0 20 -9 23 -20 8 -26 25
-17 18 10 -3 11 0 20 6 20 10 0 16 -21 12 -43 -1 -5 3 -6 9 -2 6 4 8 16 4 27
-5 16 -3 20 9 15 8 -3 18 -2 23 3 5 4 39 11 76 15 66 7 67 7 62 -16 -5 -23 -4
-23 17 4 13 15 32 27 42 27 14 0 0 -18 -49 -65z m176 45 c0 -5 -4 -10 -10 -10
-5 0 -10 5 -10 10 0 6 5 10 10 10 6 0 10 -4 10 -10z m-33 -16 c-3 -3 -12 -4
-19 -1 -8 3 -5 6 6 6 11 1 17 -2 13 -5z m-1761 -46 c45 -23 72 -29 190 -38 77
-6 146 -11 154 -10 8 1 166 2 350 4 356 2 380 5 537 63 23 8 47 13 55 10 9 -4
9 -6 -3 -6 -8 -1 -37 -12 -65 -25 -79 -38 -181 -66 -278 -76 -120 -11 -383
-17 -392 -7 -4 4 -12 7 -18 7 -6 0 -5 -5 2 -12 7 -7 12 -19 12 -28 -1 -12 -2
-12 -11 3 -18 31 -26 18 -39 -60 -7 -43 -19 -86 -26 -96 -12 -18 -12 -18 -19
2 -9 29 -61 29 -70 1 -14 -43 -25 -5 -25 81 0 68 -3 90 -12 87 -7 -3 -18 -20
-25 -39 -9 -27 -12 -29 -12 -11 -1 13 10 34 24 47 25 26 25 31 -3 16 -16 -8
-263 2 -329 14 -18 3 -37 14 -42 23 -13 26 -24 85 -15 81 5 -2 32 -16 60 -31z
m1404 -68 c-20 -13 -33 -13 -25 0 3 6 14 10 23 10 15 0 15 -2 2 -10z m-692
-85 c-6 -14 -13 -23 -15 -21 -5 5 15 46 22 46 3 0 -1 -11 -7 -25z m104 3 c-7
-7 -12 -8 -12 -2 0 6 3 14 7 17 3 4 9 5 12 2 2 -3 -1 -11 -7 -17z m-275 -20
c-3 -8 -6 -5 -6 6 -1 11 2 17 5 13 3 -3 4 -12 1 -19z m229 15 c-11 -11 -35
-12 -42 -2 -3 5 7 9 22 9 15 0 24 -3 20 -7z m107 0 c-7 -2 -21 -2 -30 0 -10 3
-4 5 12 5 17 0 24 -2 18 -5z m-150 -90 c-24 -2 -62 -2 -85 0 -24 2 -5 4 42 4
47 0 66 -2 43 -4z m-352 -63 c10 0 19 -4 19 -8 0 -12 -59 -2 -67 11 -4 7 0 8
11 4 10 -4 26 -7 37 -7z m134 0 c-3 -5 -16 -10 -28 -9 -20 1 -20 2 3 9 14 4
26 8 28 9 2 1 0 -3 -3 -9z m-68 -16 c-3 -3 -12 -4 -19 -1 -8 3 -5 6 6 6 11 1
17 -2 13 -5z"/>
<path d="M2870 1708 c0 -4 7 -8 15 -8 8 0 15 4 15 8 0 5 -7 9 -15 9 -8 0 -15
-4 -15 -9z"/>
<path d="M2879 1645 c-1 -3 -2 -15 -3 -27 0 -13 -6 -23 -13 -23 -6 0 -15 -3
-19 -7 -4 -5 -1 -8 7 -8 17 1 58 30 41 30 -14 0 -12 21 3 32 6 5 5 8 -2 8 -7
0 -14 -2 -14 -5z"/>
<path d="M2637 1619 c-9 -6 -17 -15 -17 -22 0 -7 4 -6 10 3 5 8 10 11 10 6 0
-5 -16 -26 -36 -48 -19 -22 -32 -43 -28 -46 4 -4 9 -2 11 4 8 24 30 45 48 48
12 2 19 10 17 20 -4 20 14 21 22 1 3 -8 1 -15 -4 -15 -6 0 -10 -9 -10 -20 0
-11 5 -20 11 -20 5 0 8 4 4 9 -3 5 -1 12 4 16 30 18 -11 81 -42 64z"/>
<path d="M2462 1588 c-2 -27 -1 -28 13 -15 18 19 19 33 2 40 -9 3 -14 -5 -15
-25z"/>
<path d="M2545 1610 c-8 -13 15 -13 35 0 12 8 11 10 -7 10 -12 0 -25 -4 -28
-10z"/>
<path d="M2710 1589 c0 -6 5 -7 10 -4 6 3 10 -1 10 -9 0 -8 -8 -20 -17 -25
-16 -9 -16 -10 5 -11 12 0 22 6 22 14 0 8 2 21 5 28 4 9 -2 14 -15 15 -11 1
-20 -3 -20 -8z"/>
<path d="M2507 1583 c-11 -10 -8 -25 3 -18 6 3 10 2 10 -4 0 -6 7 -8 15 -5 8
4 15 10 15 15 0 4 -7 5 -17 2 -11 -4 -14 -3 -9 5 8 13 -6 17 -17 5z"/>
<path d="M2761 1569 c-11 -19 -11 -21 4 -15 9 3 19 6 21 6 2 0 4 7 4 15 0 21
-13 19 -29 -6z"/>
<path d="M2231 1624 c0 -11 3 -14 6 -6 3 7 2 16 -1 19 -3 4 -6 -2 -5 -13z"/>
<path d="M2303 1594 c-12 -13 -19 -24 -14 -24 4 0 18 11 31 25 13 14 19 25 14
24 -5 -1 -19 -12 -31 -25z"/>
<path d="M1133 1533 c9 -2 25 -2 35 0 9 3 1 5 -18 5 -19 0 -27 -2 -17 -5z"/>
<path d="M1208 1533 c12 -2 32 -2 45 0 12 2 2 4 -23 4 -25 0 -35 -2 -22 -4z"/>
<path d="M1133 1505 c-5 -15 1 -102 8 -110 2 -1 15 -5 29 -7 20 -2 28 4 42 32
10 20 21 50 24 68 l7 32 -52 0 c-37 0 -53 -4 -58 -15z"/>
<path d="M4923 1558 c-32 -36 -48 -75 -78 -193 -27 -102 -29 -124 -28 -297 l0
-187 -31 -10 c-17 -5 -58 -17 -91 -26 -33 -9 -72 -23 -87 -31 -25 -13 -26 -16
-16 -51 15 -57 56 -123 83 -133 13 -5 61 -12 108 -16 76 -6 90 -4 131 15 36
18 50 33 70 74 28 58 45 161 47 282 1 45 8 92 16 108 20 41 23 324 4 389 -25
89 -84 123 -128 76z m21 -154 c7 -19 2 -18 -19 6 -16 17 -16 20 -3 15 9 -4 19
-13 22 -21z m-81 -49 c-3 -9 -8 -14 -10 -11 -3 3 -2 9 2 15 9 16 15 13 8 -4z
m87 -20 c8 -9 8 -15 2 -15 -7 0 -9 -29 -7 -82 2 -54 1 -73 -5 -53 -4 17 -8 58
-9 93 0 34 -5 62 -11 62 -11 0 -12 -23 -1 -98 4 -29 5 -55 2 -58 -3 -3 -11 27
-17 68 l-11 73 -21 -45 c-23 -50 -28 -50 -11 1 22 64 61 88 89 54z m-45 -237
c4 -16 5 -28 3 -28 -14 0 -68 93 -68 116 0 26 1 25 29 -17 16 -24 33 -56 36
-71z m91 72 c-8 -50 -56 -129 -74 -122 -10 3 -8 8 7 19 12 8 21 22 21 32 0 9
4 21 9 27 5 5 14 26 21 47 15 49 24 47 16 -3z m-3 -125 c-17 -13 -33 -11 -33
4 0 4 10 18 23 31 l22 25 3 -23 c2 -14 -4 -29 -15 -37z m-112 25 c10 -6 19
-20 19 -31 0 -16 -5 -18 -27 -13 -39 9 -43 13 -43 35 0 21 21 25 51 9z m76
-102 c18 -34 35 -83 39 -108 9 -62 -9 -40 -25 30 -6 30 -19 62 -28 72 -16 17
-18 14 -39 -59 -13 -43 -23 -87 -24 -98 0 -14 -3 -16 -12 -7 -9 9 -4 36 21
116 18 58 30 110 25 117 -4 7 -3 10 2 6 5 -3 23 -34 41 -69z m-110 -30 c-3 -8
-6 -5 -6 6 -1 11 2 17 5 13 3 -3 4 -12 1 -19z m118 -83 c4 -36 11 -63 15 -60
16 10 -3 -40 -23 -62 -25 -28 -32 -28 -57 -3 -15 15 -18 25 -11 38 4 9 12 43
16 76 4 32 10 54 15 50 4 -5 2 -40 -5 -79 -13 -78 -12 -85 16 -85 27 0 30 13
21 112 -4 47 -5 85 -1 82 4 -2 11 -33 14 -69z"/>
<path d="M3470 1420 c-101 -53 -188 -217 -240 -448 -27 -123 -64 -401 -65
-489 0 -40 -3 -75 -7 -78 -3 -3 -52 -11 -109 -16 -57 -6 -107 -14 -112 -18 -9
-9 21 -98 56 -166 45 -89 88 -115 225 -135 156 -23 260 -2 335 68 58 54 112
195 141 365 l12 72 39 0 40 0 7 70 c9 89 0 318 -18 458 -10 86 -20 123 -48
180 -43 88 -51 97 -100 131 -47 31 -105 34 -156 6z m-47 -206 c-4 -11 -9 -12
-19 -3 -19 15 -18 20 3 12 12 -5 14 -3 8 7 -5 8 -4 11 3 6 6 -4 9 -13 5 -22z
m20 -26 c-23 -24 -56 -68 -72 -98 -30 -54 -41 -57 -21 -5 6 15 7 32 3 38 -10
16 -13 41 -5 32 4 -4 7 -11 7 -16 0 -19 17 -13 33 13 17 29 10 50 -11 28 -9
-10 -9 -11 1 -6 14 8 17 -10 3 -19 -16 -9 -23 13 -11 35 9 17 14 19 25 10 11
-9 21 -8 42 9 47 34 50 23 6 -21z m140 -3 c38 -36 34 -41 -8 -9 -19 14 -35 28
-35 30 0 11 18 1 43 -21z m-15 -89 c23 -20 73 -106 72 -123 -1 -4 -10 10 -22
32 -19 36 -22 38 -28 19 -5 -11 -11 -52 -15 -90 -5 -38 -16 -87 -26 -109 l-19
-40 8 50 c4 28 7 78 7 113 0 34 3 62 6 62 13 0 19 63 8 76 -24 29 -29 10 -30
-103 -2 -158 -12 -206 -22 -99 -4 43 -7 112 -7 153 0 40 -4 73 -9 73 -18 0
-63 -44 -82 -82 l-20 -40 31 -66 c30 -63 62 -169 62 -202 0 -24 45 -24 51 0 3
10 20 25 39 33 18 8 48 31 66 51 l32 37 0 -42 c0 -48 -18 -67 -98 -104 -59
-27 -67 -29 -67 -16 0 17 -12 22 -18 7 -3 -8 1 -17 9 -20 8 -3 14 -18 14 -34
0 -15 12 -52 26 -81 15 -29 34 -87 44 -130 l17 -76 21 40 c31 58 27 35 -9 -51
-42 -100 -107 -153 -156 -126 -14 9 -11 10 17 9 l35 -2 0 165 c0 158 -6 220
-23 220 -4 0 -8 -17 -8 -37 -2 -54 -28 -147 -62 -223 l-29 -65 -17 33 c-9 18
-15 39 -12 45 2 7 5 4 5 -5 1 -29 18 -20 25 12 3 17 19 58 36 93 16 34 32 78
36 97 6 33 5 32 -20 -15 -14 -27 -43 -69 -65 -92 -37 -41 -39 -42 -45 -20 -9
34 -7 59 4 52 6 -3 10 -3 10 2 0 4 20 33 45 63 28 33 44 62 41 73 -2 9 0 17 5
17 5 0 9 -8 9 -17 1 -14 4 -12 15 7 29 50 13 137 -41 220 -13 19 -26 47 -29
63 -10 39 -21 34 -33 -15 l-11 -42 55 -51 c43 -41 54 -57 54 -82 l0 -32 -24
22 c-13 12 -42 33 -65 47 -41 25 -42 26 -35 70 3 25 17 79 30 120 51 162 137
225 212 156z m-237 1 c-10 -9 -11 -8 -5 6 3 10 9 15 12 12 3 -3 0 -11 -7 -18z
m316 -179 c-3 -8 -6 -5 -6 6 -1 11 2 17 5 13 3 -3 4 -12 1 -19z m10 -50 c-3
-8 -6 -5 -6 6 -1 11 2 17 5 13 3 -3 4 -12 1 -19z m-147 -98 c0 -5 -4 -10 -10
-10 -5 0 -10 5 -10 10 0 6 5 10 10 10 6 0 10 -4 10 -10z m23 -25 c-9 -19 -21
-32 -26 -28 -5 3 -3 9 4 14 8 5 10 9 6 9 -11 0 12 40 23 40 5 0 2 -16 -7 -35z
m-201 -45 c-1 -6 -5 -33 -9 -58 -5 -40 -4 -45 10 -39 25 9 22 -25 -3 -41 -19
-12 -20 -10 -20 74 0 64 3 85 13 81 6 -2 11 -10 9 -17z m316 -46 c19 -5 22
-13 21 -53 -1 -25 -3 -38 -6 -29 -2 9 -16 19 -31 23 -31 7 -65 33 -74 55 -4
12 2 15 31 13 20 -1 46 -5 59 -9z m9 -146 c-3 -7 -5 -2 -5 12 0 14 2 19 5 13
2 -7 2 -19 0 -25z m-10 -50 c-3 -8 -6 -5 -6 6 -1 11 2 17 5 13 3 -3 4 -12 1
-19z"/>
<path d="M3475 620 c3 -5 11 -10 16 -10 6 0 7 5 4 10 -3 6 -11 10 -16 10 -6 0
-7 -4 -4 -10z"/>
<path d="M3515 535 c5 -11 11 -83 14 -160 l6 -140 19 28 c17 25 18 34 8 80 -6
29 -15 83 -21 121 -5 38 -15 74 -22 80 -9 8 -10 6 -4 -9z"/>
<path d="M1795 1180 c-16 -7 -17 -9 -3 -9 9 -1 20 4 23 9 7 11 7 11 -20 0z"/>
<path d="M1739 1165 c-3 -2 -44 -5 -93 -6 -48 -1 -85 -4 -82 -7 3 -3 32 -5 63
-5 46 1 52 -1 28 -7 -46 -12 -2 -11 54 1 28 6 53 15 57 20 5 9 -19 13 -27 4z"/>
<path d="M1240 1150 c35 -4 119 -4 185 0 117 7 116 7 -65 7 -130 0 -166 -2
-120 -7z"/>
<path d="M144 1128 c3 -13 11 -63 16 -113 26 -228 36 -277 61 -297 l23 -20 31
39 c74 94 72 93 189 93 91 0 106 -2 106 -16 0 -14 -7 -15 -46 -9 -60 9 -72 0
-184 -135 -51 -60 -98 -110 -105 -110 -7 0 -29 11 -49 25 -20 14 -39 25 -41
25 -13 0 -3 -40 15 -62 31 -40 92 -59 179 -57 96 2 101 1 101 -12 0 -12 40
-48 54 -49 5 0 35 -24 66 -54 74 -71 107 -80 295 -80 l151 -1 65 33 64 33 240
-16 c132 -8 301 -20 375 -25 375 -27 499 -31 788 -25 l303 7 14 29 c8 15 15
29 15 31 0 2 -116 2 -257 1 -191 -1 -239 1 -183 8 41 4 136 15 210 24 156 18
254 40 272 62 14 18 -32 17 -492 -8 -129 -7 -246 -10 -260 -6 -23 6 -81 51
-251 195 -34 30 -69 61 -78 69 -27 28 -74 41 -173 48 -54 4 -98 11 -98 16 0
12 109 11 223 -1 51 -5 128 -11 173 -13 87 -4 65 6 292 -127 l74 -44 161 13
c268 21 339 40 357 97 18 53 -11 162 -89 336 -30 66 -47 70 -222 47 -79 -11
-216 -28 -304 -39 -88 -11 -178 -27 -201 -35 -22 -9 -67 -40 -100 -71 -32 -30
-69 -59 -82 -64 -26 -11 -223 -13 -259 -4 -22 6 -23 11 -23 114 l0 107 -127 6
c-71 4 -293 10 -495 13 l-368 7 0 -102 0 -101 -54 0 c-83 0 -106 13 -153 85
-37 56 -51 68 -115 100 -40 20 -77 41 -82 46 -17 16 -28 10 -22 -13z m793 -91
c17 0 17 -14 1 -24 -23 -14 -48 -13 -48 2 0 9 -6 12 -16 8 -13 -5 -13 -7 -2
-14 9 -6 4 -8 -14 -7 -16 1 -28 7 -28 13 0 5 -5 3 -11 -5 -8 -12 -10 -11 -7 5
2 13 11 20 25 20 12 0 25 4 29 8 4 3 19 4 33 0 14 -3 31 -6 38 -6z m-92 -57
c10 -16 -25 -100 -46 -110 -28 -15 -142 -13 -137 3 3 7 25 13 52 15 48 3 58
13 80 85 6 18 41 23 51 7z m188 -14 c3 -7 9 -34 12 -60 7 -43 6 -46 -14 -46
-12 0 -24 7 -27 15 -7 18 -94 21 -111 4 -6 -6 -23 -9 -38 -7 -25 3 -24 5 37
55 49 40 71 51 99 52 23 1 39 -4 42 -13z m247 0 c0 -3 -26 -23 -57 -45 l-58
-41 38 0 c38 0 51 -15 20 -23 -10 -3 -52 -2 -93 1 l-75 7 65 40 65 40 -43 3
c-74 5 -34 22 54 22 46 0 84 -2 84 -4z m180 -9 c8 -1 -11 -21 -44 -45 l-59
-42 42 0 c26 0 40 -4 36 -10 -7 -11 -175 -14 -175 -2 0 4 26 23 58 42 l57 35
-37 3 c-37 3 -51 16 -26 24 10 4 110 0 148 -5z m1176 -125 c1 -7 0 -8 -3 -2
-16 32 -62 -11 -57 -54 4 -35 37 -82 54 -78 6 1 9 -2 5 -8 -10 -17 -61 16 -74
49 -14 32 -8 66 17 94 18 20 54 19 58 -1z m40 -14 c4 -7 3 -8 -4 -4 -7 4 -12
1 -12 -8 0 -8 6 -17 13 -19 9 -4 9 -8 1 -14 -7 -4 -14 -15 -17 -23 -2 -8 -3
-3 -1 12 2 21 0 26 -11 21 -10 -3 -15 1 -15 12 0 9 5 13 10 10 6 -3 10 1 10 9
0 19 16 21 26 4z m-46 -60 c0 -25 -16 -22 -24 5 -11 41 -7 54 9 33 8 -11 15
-28 15 -38z m60 -17 c0 -6 -4 -13 -10 -16 -5 -3 -10 1 -10 9 0 9 5 16 10 16 6
0 10 -4 10 -9z m115 -41 c3 -5 -1 -10 -9 -10 -9 0 -16 5 -16 10 0 6 4 10 9 10
6 0 13 -4 16 -10z"/>
<path d="M950 930 l-25 -20 33 0 c25 0 32 4 32 20 0 25 -8 25 -40 0z"/>
<path d="M4685 975 c-16 -7 -52 -20 -80 -29 -53 -17 -32 -15 47 4 26 6 52 18
59 26 14 17 13 17 -26 -1z"/>
<path d="M4331 867 c-107 -34 -188 -63 -180 -64 8 -2 102 26 209 61 107 35
188 64 180 64 -8 0 -102 -27 -209 -61z"/>
<path d="M3993 766 c-62 -17 -116 -35 -120 -40 -9 -10 43 0 102 19 22 7 66 20
98 29 31 9 57 19 57 21 0 9 -23 4 -137 -29z"/>
</g>
</svg>
